<svg xmlns="http://www.w3.org/2000/svg" viewBox="0 0 1600 900" preserveAspectRatio="xMidYMid slice">
  <defs>
    <linearGradient id="bg" x1="0" y1="0" x2="1" y2="1">
      <stop offset="0%" stop-color="#071017"/>
      <stop offset="50%" stop-color="#0b151b"/>
      <stop offset="100%" stop-color="#0c171d"/>
    </linearGradient>
    <radialGradient id="cyanGlow" cx="62%" cy="34%" r="38%">
      <stop offset="0%" stop-color="rgba(47,182,212,.42)"/>
      <stop offset="55%" stop-color="rgba(27,99,121,.20)"/>
      <stop offset="100%" stop-color="rgba(0,0,0,0)"/>
    </radialGradient>
    <radialGradient id="goldGlow" cx="28%" cy="72%" r="24%">
      <stop offset="0%" stop-color="rgba(214,171,78,.18)"/>
      <stop offset="100%" stop-color="rgba(0,0,0,0)"/>
    </radialGradient>
  </defs>
  <rect width="1600" height="900" fill="url(#bg)"/>
  <rect width="1600" height="900" fill="url(#cyanGlow)"/>
  <rect width="1600" height="900" fill="url(#goldGlow)"/>
  <g opacity=".18">
    <path d="M0 708 L200 530 L420 688 L618 438 L796 618 L986 424 L1198 612 L1390 500 L1600 684 L1600 900 L0 900 Z" fill="#111920"/>
    <path d="M0 770 L176 646 L356 742 L554 562 L726 702 L930 564 L1138 706 L1352 624 L1600 770 L1600 900 L0 900 Z" fill="#0b1217"/>
    <path d="M0 824 L214 696 L412 784 L620 632 L800 740 L1010 610 L1228 744 L1406 666 L1600 798 L1600 900 L0 900 Z" fill="#081015"/>
  </g>
  <g opacity=".22" transform="translate(1050 165)">
    <circle cx="0" cy="0" r="200" fill="none" stroke="#164c5e" stroke-width="1.2"/>
    <circle cx="0" cy="0" r="150" fill="none" stroke="#1c6d85" stroke-width="1.1"/>
    <circle cx="0" cy="0" r="108" fill="none" stroke="#2da8c3" stroke-width="1.0"/>
    <circle cx="0" cy="0" r="60" fill="none" stroke="#d6ab4e" stroke-width="1.0"/>
    <path d="M-200 0H200M0 -200V200" stroke="#1a5c70" stroke-width=".8"/>
    <path d="M-141 -141L141 141M141 -141L-141 141" stroke="#1b5467" stroke-width=".8"/>
    <circle cx="0" cy="0" r="5" fill="#37c5dc"/>
  </g>
  <g opacity=".06">
    <path d="M0 0H1600M0 72H1600M0 144H1600M0 216H1600M0 288H1600M0 360H1600M0 432H1600M0 504H1600M0 576H1600M0 648H1600M0 720H1600M0 792H1600" stroke="#cfd8dd" stroke-width="1"/>
  </g>
  <g opacity=".35">
    <circle cx="1160" cy="204" r="3" fill="#8fe7f3"/>
    <circle cx="1084" cy="132" r="2.8" fill="#d6ab4e"/>
    <circle cx="1002" cy="246" r="2.2" fill="#7bd7e7"/>
  </g>
</svg>