<svg xmlns="http://www.w3.org/2000/svg" viewBox="0 0 1800 900" preserveAspectRatio="xMidYMid slice">
  <defs>
    <linearGradient id="sky" x1="0" y1="0" x2="1" y2="1">
      <stop offset="0" stop-color="#0a0d10"/>
      <stop offset="0.42" stop-color="#0d171c"/>
      <stop offset="1" stop-color="#081014"/>
    </linearGradient>
    <radialGradient id="cyanMist" cx="67%" cy="35%" r="46%">
      <stop offset="0" stop-color="#144b57" stop-opacity="0.52"/>
      <stop offset="0.48" stop-color="#0f2d36" stop-opacity="0.25"/>
      <stop offset="1" stop-color="#000000" stop-opacity="0"/>
    </radialGradient>
    <radialGradient id="ochreMist" cx="72%" cy="74%" r="34%">
      <stop offset="0" stop-color="#d6ab4e" stop-opacity="0.16"/>
      <stop offset="1" stop-color="#000000" stop-opacity="0"/>
    </radialGradient>
    <linearGradient id="ridgeFar" x1="0" x2="0" y1="0" y2="1"><stop offset="0" stop-color="#24404a" stop-opacity="0.30"/><stop offset="1" stop-color="#10181d" stop-opacity="0.62"/></linearGradient>
    <linearGradient id="ridgeMid" x1="0" x2="0" y1="0" y2="1"><stop offset="0" stop-color="#2b4d57" stop-opacity="0.38"/><stop offset="1" stop-color="#081015" stop-opacity="0.82"/></linearGradient>
    <linearGradient id="ridgeNear" x1="0" x2="0" y1="0" y2="1"><stop offset="0" stop-color="#253943" stop-opacity="0.54"/><stop offset="1" stop-color="#03070a" stop-opacity="0.95"/></linearGradient>
    <pattern id="grain" width="80" height="80" patternUnits="userSpaceOnUse">
      <circle cx="9" cy="17" r="0.7" fill="#cdd8dc" opacity="0.11"/><circle cx="43" cy="8" r="0.5" fill="#7ecfd7" opacity="0.10"/><circle cx="71" cy="54" r="0.8" fill="#d6ab4e" opacity="0.08"/><circle cx="28" cy="66" r="0.55" fill="#fff" opacity="0.08"/>
    </pattern>
  </defs>
  <rect width="1800" height="900" fill="url(#sky)"/>
  <rect width="1800" height="900" fill="url(#cyanMist)"/>
  <rect width="1800" height="900" fill="url(#ochreMist)"/>
  <path d="M990 0 C880 190 880 365 1025 548 C1168 730 1150 822 1080 900 L1800 900 L1800 0 Z" fill="#1d5360" opacity="0.055"/>
  <path d="M1170 0 C1060 210 1090 436 1252 600 C1370 720 1398 810 1360 900 L1800 900 L1800 0 Z" fill="#d6ab4e" opacity="0.025"/>
  <g transform="translate(0 86)">
    <path fill="url(#ridgeFar)" d="M620 645 C680 598 735 555 805 584 C858 606 892 560 940 526 C1008 480 1064 492 1122 535 C1175 574 1216 534 1278 485 C1348 430 1418 456 1476 506 C1530 552 1598 524 1680 486 C1738 460 1776 466 1800 482 L1800 814 L620 814 Z"/>
    <path fill="url(#ridgeMid)" d="M520 720 C585 648 652 613 735 648 C806 678 830 600 900 562 C980 518 1032 580 1088 624 C1142 666 1192 576 1260 520 C1328 464 1397 502 1455 556 C1510 608 1594 536 1676 506 C1732 486 1778 500 1800 518 L1800 814 L520 814 Z"/>
    <path fill="url(#ridgeNear)" d="M420 794 C520 708 600 690 704 725 C780 752 842 642 930 606 C1005 575 1066 662 1138 700 C1202 734 1262 638 1330 590 C1408 535 1490 622 1540 660 C1594 700 1666 616 1735 590 C1775 576 1794 584 1800 590 L1800 814 L420 814 Z"/>
    <path d="M880 606 L930 606 L978 680 L1038 630 L1094 700 L1140 700" stroke="#8feaf4" stroke-opacity="0.07" stroke-width="2" fill="none"/>
  </g>
  <g transform="translate(1238 208)" opacity="0.36">
    <circle r="62" fill="none" stroke="#8feaf4" stroke-opacity="0.16" stroke-width="1.4"/><circle r="116" fill="none" stroke="#8feaf4" stroke-opacity="0.10" stroke-width="1.1"/><circle r="178" fill="none" stroke="#8feaf4" stroke-opacity="0.075" stroke-width="1"/><circle r="244" fill="none" stroke="#d6ab4e" stroke-opacity="0.055" stroke-width="1"/>
    <path d="M-244 0H244M0-244V244" stroke="#8feaf4" stroke-opacity="0.045" stroke-width="1"/><path d="M-172 -172L172 172M172 -172L-172 172" stroke="#8feaf4" stroke-opacity="0.035" stroke-width="1"/>
    <circle r="6" fill="#5fd4e5" opacity="0.45"/><circle cx="70" cy="-48" r="3" fill="#d6ab4e" opacity="0.45"/><circle cx="143" cy="50" r="3" fill="#8feaf4" opacity="0.36"/>
  </g>
  <rect width="1800" height="900" fill="url(#grain)" opacity="0.55"/>
  <g opacity="0.035"><path d="M0 90H1800M0 180H1800M0 270H1800M0 360H1800M0 450H1800M0 540H1800M0 630H1800M0 720H1800" stroke="#d9e5e8"/></g>
</svg>
