<svg xmlns="http://www.w3.org/2000/svg" width="960" height="420" viewBox="0 0 960 420" role="img" aria-label="Media Encoder abstract interface backdrop"><defs><linearGradient id="fade" x1="0" x2="1"><stop offset="0" stop-color="#071015" stop-opacity="0"/><stop offset="0.35" stop-color="#071015" stop-opacity=".4"/><stop offset="1" stop-color="#071015" stop-opacity=".95"/></linearGradient></defs><rect width="960" height="420" fill="#071015"/><g opacity=".94"><rect x="250" y="48" width="660" height="294" rx="10" fill="#081119" stroke="#28404a" stroke-opacity=".55"/><rect x="282" y="78" width="586" height="28" rx="7" fill="#0f1b25" fill-opacity=".42"/><rect x="282" y="117" width="586" height="28" rx="7" fill="#0f1b25" fill-opacity=".58"/><rect x="282" y="156" width="586" height="28" rx="7" fill="#0f1b25" fill-opacity=".42"/><rect x="282" y="195" width="586" height="28" rx="7" fill="#0f1b25" fill-opacity=".58"/><rect x="282" y="234" width="586" height="28" rx="7" fill="#0f1b25" fill-opacity=".42"/><rect x="302" y="87" width="52" height="8" rx="4" fill="#7e68ff" fill-opacity=".3"/><rect x="392" y="87" width="142" height="8" rx="4" fill="#5fd4e5" fill-opacity=".22"/><rect x="580" y="87" width="168" height="8" rx="4" fill="#5fd4e5" fill-opacity=".15"/><rect x="792" y="87" width="48" height="8" rx="4" fill="#3ba567" fill-opacity=".28"/><rect x="302" y="126" width="52" height="8" rx="4" fill="#7e68ff" fill-opacity=".3"/><rect x="392" y="126" width="120" height="8" rx="4" fill="#5fd4e5" fill-opacity=".22"/><rect x="580" y="126" width="150" height="8" rx="4" fill="#5fd4e5" fill-opacity=".15"/><rect x="792" y="126" width="52" height="8" rx="4" fill="#f0ca67" fill-opacity=".28"/><rect x="42" y="48" width="160" height="294" rx="10" fill="#080f16" stroke="#28404a" stroke-opacity=".45"/><rect x="66" y="80" width="92" height="2" rx="1" fill="#7e68ff" fill-opacity=".22"/><rect x="66" y="106" width="70" height="2" rx="1" fill="#7e68ff" fill-opacity=".22"/><rect x="66" y="132" width="106" height="2" rx="1" fill="#7e68ff" fill-opacity=".22"/></g><rect width="960" height="420" fill="url(#fade)"/><rect x=".5" y=".5" width="959" height="419" rx="22" fill="none" stroke="#7e68ff" stroke-opacity=".14"/></svg>
