<svg xmlns="http://www.w3.org/2000/svg" viewBox="0 0 1200 620" role="img" aria-label="Adobe Acrobat Reader interface backdrop">
  <defs>
    <linearGradient id="bg" x1="0" y1="0" x2="1" y2="1"><stop stop-color="#111820"/><stop offset="1" stop-color="#070B10"/></linearGradient>
    <linearGradient id="red" x1="0" y1="0" x2="1" y2="1"><stop stop-color="#FF4F45"/><stop offset="1" stop-color="#B91522"/></linearGradient>
    <filter id="soft" x="-20%" y="-20%" width="140%" height="140%"><feGaussianBlur stdDeviation="18"/></filter>
  </defs>
  <rect width="1200" height="620" rx="36" fill="url(#bg)"/>
  <rect x="44" y="42" width="1112" height="64" rx="18" fill="#151E27" stroke="#2D3D48"/>
  <circle cx="82" cy="74" r="10" fill="#FF5F57"/><circle cx="114" cy="74" r="10" fill="#FFBD2E"/><circle cx="146" cy="74" r="10" fill="#28C840"/>
  <rect x="198" y="62" width="220" height="24" rx="12" fill="#25323E"/>
  <rect x="860" y="60" width="240" height="28" rx="14" fill="#25323E"/>
  <rect x="56" y="132" width="230" height="432" rx="20" fill="#0E151C" stroke="#263746"/>
  <rect x="86" y="166" width="170" height="216" rx="14" fill="#F1F4F7"/>
  <rect x="108" y="192" width="126" height="13" rx="6" fill="#C8D0D8"/><rect x="108" y="220" width="96" height="10" rx="5" fill="#D8DEE5"/><rect x="108" y="246" width="126" height="10" rx="5" fill="#D8DEE5"/><rect x="108" y="272" width="110" height="10" rx="5" fill="#D8DEE5"/>
  <path d="M106 340c34-56 57-103 53-141m0 0c-6 44 11 85 55 121m-106 20c32-21 72-26 106-20" fill="none" stroke="url(#red)" stroke-width="10" stroke-linecap="round" stroke-linejoin="round"/>
  <rect x="326" y="132" width="560" height="432" rx="24" fill="#F4F6F8"/>
  <rect x="374" y="184" width="300" height="20" rx="10" fill="#AEB8C3"/><rect x="374" y="230" width="440" height="14" rx="7" fill="#CDD4DB"/><rect x="374" y="264" width="410" height="14" rx="7" fill="#CDD4DB"/><rect x="374" y="298" width="468" height="14" rx="7" fill="#CDD4DB"/>
  <rect x="374" y="360" width="210" height="118" rx="16" fill="#E2E7EC"/><rect x="612" y="360" width="230" height="118" rx="16" fill="#E2E7EC"/>
  <rect x="918" y="132" width="238" height="432" rx="20" fill="#0E151C" stroke="#263746"/>
  <rect x="948" y="168" width="178" height="34" rx="17" fill="url(#red)"/><rect x="948" y="228" width="178" height="20" rx="10" fill="#2B3B48"/><rect x="948" y="268" width="142" height="16" rx="8" fill="#263644"/><rect x="948" y="304" width="164" height="16" rx="8" fill="#263644"/>
  <circle cx="950" cy="86" r="150" fill="#D7302F" opacity=".15" filter="url(#soft)"/>
</svg>
