<svg xmlns="http://www.w3.org/2000/svg" width="960" height="420" viewBox="0 0 960 420" role="img" aria-label="Premiere Pro abstract interface backdrop">
  <defs><linearGradient id="fade" x1="0" x2="1"><stop offset="0" stop-color="#071015" stop-opacity="0"/><stop offset="0.35" stop-color="#071015" stop-opacity="0.42"/><stop offset="1" stop-color="#071015" stop-opacity="0.95"/></linearGradient></defs>
  <rect width="960" height="420" fill="#071015"/>
  <g opacity=".94">
    <rect x="300" y="35" width="600" height="205" rx="10" fill="#0b151c" stroke="#28404a" stroke-opacity=".55"/>
    <rect x="326" y="58" width="330" height="158" rx="8" fill="#243747" fill-opacity=".62"/>
    <path d="M326 190 L426 126 L503 163 L583 88 L656 190 Z" fill="#7aa9c7" fill-opacity=".32"/>
    <path d="M326 190 L414 142 L520 180 L620 120 L656 190 Z" fill="#314b52" fill-opacity=".75"/>
    <rect x="678" y="58" width="186" height="158" rx="8" fill="#0a1118" stroke="#28404a" stroke-opacity=".45"/>
    <rect x="700" y="82" width="122" height="2" rx="1" fill="#9a7cff" fill-opacity=".24"/><rect x="700" y="102" width="96" height="2" rx="1" fill="#5fd4e5" fill-opacity=".24"/><rect x="700" y="122" width="118" height="2" rx="1" fill="#9a7cff" fill-opacity=".24"/><rect x="700" y="142" width="86" height="2" rx="1" fill="#5fd4e5" fill-opacity=".24"/>
    <rect x="300" y="260" width="600" height="118" rx="10" fill="#091219" stroke="#28404a" stroke-opacity=".55"/>
    <rect x="326" y="282" width="72" height="13" rx="3" fill="#39d8c8" fill-opacity=".25"/><rect x="410" y="282" width="112" height="13" rx="3" fill="#39d8c8" fill-opacity=".2"/><rect x="548" y="282" width="96" height="13" rx="3" fill="#39d8c8" fill-opacity=".25"/><rect x="670" y="282" width="138" height="13" rx="3" fill="#39d8c8" fill-opacity=".2"/>
    <rect x="326" y="306" width="118" height="13" rx="3" fill="#7e68ff" fill-opacity=".25"/><rect x="462" y="306" width="72" height="13" rx="3" fill="#7e68ff" fill-opacity=".2"/><rect x="566" y="306" width="128" height="13" rx="3" fill="#7e68ff" fill-opacity=".25"/>
    <rect x="326" y="330" width="92" height="13" rx="3" fill="#5fd4e5" fill-opacity=".2"/><rect x="444" y="330" width="118" height="13" rx="3" fill="#5fd4e5" fill-opacity=".24"/><rect x="590" y="330" width="74" height="13" rx="3" fill="#5fd4e5" fill-opacity=".18"/><rect x="700" y="330" width="118" height="13" rx="3" fill="#5fd4e5" fill-opacity=".24"/>
    <rect x="44" y="44" width="204" height="322" rx="10" fill="#090f15" stroke="#28404a" stroke-opacity=".45"/>
    <rect x="70" y="72" width="118" height="2" rx="1" fill="#5fd4e5" fill-opacity=".18"/><rect x="70" y="92" width="88" height="2" rx="1" fill="#5fd4e5" fill-opacity=".18"/><rect x="70" y="112" width="132" height="2" rx="1" fill="#5fd4e5" fill-opacity=".18"/><rect x="70" y="132" width="104" height="2" rx="1" fill="#5fd4e5" fill-opacity=".18"/>
  </g>
  <rect width="960" height="420" fill="url(#fade)"/>
  <rect x="0.5" y="0.5" width="959" height="419" rx="22" fill="none" stroke="#5fd4e5" stroke-opacity=".14"/>
</svg>
