<svg xmlns="http://www.w3.org/2000/svg" width="960" height="420" viewBox="0 0 960 420" role="img" aria-label="Lightroom Classic abstract interface backdrop"><defs><linearGradient id="fade" x1="0" x2="1"><stop offset="0" stop-color="#071015" stop-opacity="0"/><stop offset="0.35" stop-color="#071015" stop-opacity=".4"/><stop offset="1" stop-color="#071015" stop-opacity=".95"/></linearGradient></defs><rect width="960" height="420" fill="#071015"/><g opacity=".94"><rect x="270" y="36" width="492" height="312" rx="10" fill="#0b141a" stroke="#28404a" stroke-opacity=".55"/><rect x="302" y="70" width="112" height="88" rx="8" fill="#1c2c33" fill-opacity=".74"/><path d="M302 148 L336 118 L364 138 L396 102 L414 148 Z" fill="#83a985" fill-opacity=".24"/><rect x="434" y="70" width="112" height="88" rx="8" fill="#1c2c33" fill-opacity=".68"/><path d="M434 148 L468 116 L510 142 L546 104 L546 148 Z" fill="#7aa9c7" fill-opacity=".24"/><rect x="566" y="70" width="112" height="88" rx="8" fill="#1c2c33" fill-opacity=".74"/><path d="M566 148 L598 128 L632 146 L666 105 L678 148 Z" fill="#d7a95c" fill-opacity=".2"/><rect x="302" y="188" width="112" height="88" rx="8" fill="#1c2c33" fill-opacity=".62"/><path d="M302 266 L350 218 L390 258 L414 228 L414 266 Z" fill="#83a985" fill-opacity=".22"/><rect x="434" y="188" width="112" height="88" rx="8" fill="#1c2c33" fill-opacity=".74"/><path d="M434 266 L470 226 L498 252 L530 208 L546 266 Z" fill="#7aa9c7" fill-opacity=".22"/><rect x="566" y="188" width="112" height="88" rx="8" fill="#1c2c33" fill-opacity=".68"/><path d="M566 266 L610 218 L646 256 L678 234 L678 266 Z" fill="#d7a95c" fill-opacity=".2"/><rect x="790" y="36" width="128" height="312" rx="10" fill="#081017" stroke="#28404a" stroke-opacity=".45"/><path d="M810 102 C840 72 865 136 898 88" stroke="#5fd4e5" stroke-opacity=".32" stroke-width="3" fill="none"/><rect x="812" y="154" width="72" height="2" rx="1" fill="#5fd4e5" fill-opacity=".24"/><rect x="812" y="178" width="88" height="2" rx="1" fill="#5fd4e5" fill-opacity=".2"/><rect x="812" y="202" width="64" height="2" rx="1" fill="#5fd4e5" fill-opacity=".24"/><rect x="42" y="36" width="178" height="312" rx="10" fill="#080f16" stroke="#28404a" stroke-opacity=".45"/></g><rect width="960" height="420" fill="url(#fade)"/><rect x=".5" y=".5" width="959" height="419" rx="22" fill="none" stroke="#31c8ff" stroke-opacity=".14"/></svg>
