<svg xmlns="http://www.w3.org/2000/svg" width="960" height="420" viewBox="0 0 960 420" role="img" aria-label="After Effects abstract interface backdrop"><defs><linearGradient id="fade" x1="0" x2="1"><stop offset="0" stop-color="#071015" stop-opacity="0"/><stop offset="0.35" stop-color="#071015" stop-opacity=".4"/><stop offset="1" stop-color="#071015" stop-opacity=".95"/></linearGradient></defs><rect width="960" height="420" fill="#071015"/><g opacity=".94"><rect x="275" y="34" width="630" height="220" rx="10" fill="#0b1119" stroke="#322c52" stroke-opacity=".6"/><rect x="318" y="62" width="348" height="166" rx="10" fill="#101722" fill-opacity=".82"/><circle cx="442" cy="142" r="54" fill="#9c6cff" fill-opacity=".22"/><circle cx="512" cy="138" r="45" fill="#f0ca67" fill-opacity=".2"/><circle cx="579" cy="150" r="68" fill="#d66b9c" fill-opacity=".2"/><circle cx="650" cy="114" r="38" fill="#5fd4e5" fill-opacity=".16"/><rect x="692" y="62" width="166" height="166" rx="8" fill="#0a1118" stroke="#322c52" stroke-opacity=".45"/><rect x="712" y="85" width="94" height="2" rx="1" fill="#9c6cff" fill-opacity=".25"/><rect x="712" y="105" width="118" height="2" rx="1" fill="#9c6cff" fill-opacity=".18"/><rect x="712" y="125" width="80" height="2" rx="1" fill="#9c6cff" fill-opacity=".25"/><rect x="275" y="270" width="630" height="105" rx="10" fill="#080f16" stroke="#322c52" stroke-opacity=".5"/><rect x="435" y="288" width="350" height="7" rx="3" fill="#8d6eff" fill-opacity=".18"/><rect x="435" y="304" width="310" height="7" rx="3" fill="#8d6eff" fill-opacity=".22"/><rect x="435" y="320" width="280" height="7" rx="3" fill="#8d6eff" fill-opacity=".18"/><rect x="435" y="336" width="330" height="7" rx="3" fill="#8d6eff" fill-opacity=".22"/><rect x="42" y="42" width="198" height="326" rx="10" fill="#090f15" stroke="#322c52" stroke-opacity=".45"/><rect x="68" y="70" width="112" height="2" rx="1" fill="#9c6cff" fill-opacity=".2"/><rect x="68" y="94" width="132" height="2" rx="1" fill="#9c6cff" fill-opacity=".2"/><rect x="68" y="118" width="84" height="2" rx="1" fill="#9c6cff" fill-opacity=".2"/></g><rect width="960" height="420" fill="url(#fade)"/><rect x=".5" y=".5" width="959" height="419" rx="22" fill="none" stroke="#9c6cff" stroke-opacity=".14"/></svg>
