<svg xmlns="http://www.w3.org/2000/svg" width="960" height="420" viewBox="0 0 960 420" role="img" aria-label="Photoshop abstract interface backdrop"><defs><linearGradient id="fade" x1="0" x2="1"><stop offset="0" stop-color="#071015" stop-opacity="0"/><stop offset="0.35" stop-color="#071015" stop-opacity=".4"/><stop offset="1" stop-color="#071015" stop-opacity=".95"/></linearGradient></defs><rect width="960" height="420" fill="#071015"/><g opacity=".94"><rect x="302" y="38" width="470" height="308" rx="10" fill="#0c141b" stroke="#28404a" stroke-opacity=".55"/><rect x="336" y="72" width="308" height="232" rx="8" fill="#161b24" fill-opacity=".86"/><circle cx="486" cy="188" r="82" fill="#6f2fb8" fill-opacity=".28"/><path d="M486 188 L505 96 Q525 142 590 118 Z" fill="#8b45d9" fill-opacity=".16"/><path d="M486 188 L578 206 Q526 220 548 294 Z" fill="#8b45d9" fill-opacity=".16"/><path d="M486 188 L400 220 Q456 218 414 292 Z" fill="#8b45d9" fill-opacity=".16"/><path d="M486 188 L410 110 Q452 136 462 76 Z" fill="#8b45d9" fill-opacity=".16"/><circle cx="486" cy="188" r="28" fill="#f0ca67" fill-opacity=".25"/><rect x="790" y="38" width="126" height="308" rx="10" fill="#0a1118" stroke="#28404a" stroke-opacity=".45"/><rect x="810" y="66" width="66" height="2" rx="1" fill="#31a8ff" fill-opacity=".26"/><rect x="810" y="88" width="84" height="2" rx="1" fill="#31a8ff" fill-opacity=".22"/><rect x="810" y="110" width="58" height="2" rx="1" fill="#31a8ff" fill-opacity=".26"/><rect x="42" y="38" width="74" height="308" rx="10" fill="#081017" stroke="#28404a" stroke-opacity=".45"/><rect x="67" y="62" width="24" height="24" rx="5" fill="#31a8ff" fill-opacity=".18"/><rect x="67" y="100" width="24" height="24" rx="5" fill="#31a8ff" fill-opacity=".12"/><rect x="67" y="138" width="24" height="24" rx="5" fill="#31a8ff" fill-opacity=".18"/></g><rect width="960" height="420" fill="url(#fade)"/><rect x=".5" y=".5" width="959" height="419" rx="22" fill="none" stroke="#31a8ff" stroke-opacity=".14"/></svg>
